<?xml version="1.0" standalone="no"?><!-- Generator: Gravit.io --><svg xmlns="http://www.w3.org/2000/svg" xmlns:xlink="http://www.w3.org/1999/xlink" style="isolation:isolate" viewBox="0 0 256 256" width="256" height="256"><path d=" M 116.001 141.594 L 116.001 143.453 L 116.001 143.453 Q 116.001 170.469 103.642 186.984 L 103.642 186.984 L 103.642 186.984 Q 91.283 203.5 70.173 203.5 L 70.173 203.5 L 70.173 203.5 Q 48.626 203.5 36.267 189.828 L 36.267 189.828 L 36.267 246.813 L 16.032 246.813 L 16.032 82.969 L 34.517 82.969 L 35.501 96.094 L 35.501 96.094 Q 47.861 80.781 69.845 80.781 L 69.845 80.781 L 69.845 80.781 Q 91.173 80.781 103.587 96.859 L 103.587 96.859 L 103.587 96.859 Q 116.001 112.938 116.001 141.594 L 116.001 141.594 L 116.001 141.594 Z  M 95.767 141.156 L 95.767 141.156 L 95.767 141.156 Q 95.767 121.141 87.236 109.547 L 87.236 109.547 L 87.236 109.547 Q 78.704 97.953 63.829 97.953 L 63.829 97.953 L 63.829 97.953 Q 45.454 97.953 36.267 114.25 L 36.267 114.25 L 36.267 170.797 L 36.267 170.797 Q 45.345 186.984 64.048 186.984 L 64.048 186.984 L 64.048 186.984 Q 78.595 186.984 87.181 175.445 L 87.181 175.445 L 87.181 175.445 Q 95.767 163.906 95.767 141.156 Z  M 136.783 142.688 L 136.783 141.156 L 136.783 141.156 Q 136.783 113.922 149.689 97.352 L 149.689 97.352 L 149.689 97.352 Q 162.595 80.781 183.486 80.781 L 183.486 80.781 L 183.486 80.781 Q 204.267 80.781 216.408 95 L 216.408 95 L 216.408 33.313 L 236.642 33.313 L 236.642 201.313 L 218.048 201.313 L 217.064 188.625 L 217.064 188.625 Q 204.923 203.5 183.267 203.5 L 183.267 203.5 L 183.267 203.5 Q 162.704 203.5 149.743 186.656 L 149.743 186.656 L 149.743 186.656 Q 136.783 169.813 136.783 142.688 L 136.783 142.688 L 136.783 142.688 Z  M 157.017 143.453 L 157.017 143.453 L 157.017 143.453 Q 157.017 163.578 165.329 174.953 L 165.329 174.953 L 165.329 174.953 Q 173.642 186.328 188.298 186.328 L 188.298 186.328 L 188.298 186.328 Q 207.548 186.328 216.408 169.047 L 216.408 169.047 L 216.408 114.688 L 216.408 114.688 Q 207.329 97.953 188.517 97.953 L 188.517 97.953 L 188.517 97.953 Q 173.642 97.953 165.329 109.438 L 165.329 109.438 L 165.329 109.438 Q 157.017 120.922 157.017 143.453 Z " fill="rgb(255,255,255)"/></svg>