<?xml version="1.0" standalone="no"?>
<!DOCTYPE svg PUBLIC "-//W3C//DTD SVG 20010904//EN"
 "http://www.w3.org/TR/2001/REC-SVG-20010904/DTD/svg10.dtd">
<svg version="1.0" xmlns="http://www.w3.org/2000/svg"
 width="700.000000pt" height="700.000000pt" viewBox="0 0 700.000000 700.000000"
 preserveAspectRatio="xMidYMid meet">
<metadata>
Created by potrace 1.11, written by Peter Selinger 2001-2013
</metadata>
<g transform="translate(0.000000,700.000000) scale(0.100000,-0.100000)"
fill="#000000" stroke="none">
<path d="M5919 6073 c0 -10 -1 -388 -1 -840 -1 -453 -2 -823 -3 -823 0 0 -34
31 -73 70 -169 163 -351 251 -612 295 -76 13 -334 13 -420 1 -94 -14 -311 -89
-350 -120 -8 -7 -35 -24 -60 -38 -152 -87 -343 -299 -443 -493 -88 -169 -157
-377 -181 -548 -4 -27 -9 -58 -11 -68 -20 -102 -27 -532 -11 -684 63 -623 361
-1104 806 -1300 35 -15 78 -32 95 -36 176 -45 220 -51 375 -51 338 1 621 112
830 325 38 39 71 69 74 66 3 -3 8 -52 21 -229 1 -19 3 -51 4 -70 l1 -35 253 0
252 0 3 2298 2 2297 -275 0 c-255 0 -275 -1 -276 -17z m-525 -1782 c185 -49
324 -145 444 -306 87 -117 79 -37 78 -870 l-1 -741 -40 -69 c-57 -99 -209
-249 -300 -297 -74 -39 -168 -73 -225 -82 -19 -3 -46 -8 -60 -11 -35 -8 -217
-8 -265 -1 -103 16 -159 34 -246 78 -95 49 -220 163 -281 258 -104 161 -171
372 -194 610 -14 141 -7 433 12 575 11 81 56 267 79 328 75 199 182 340 332
440 73 47 197 95 272 104 25 3 48 7 50 9 14 13 274 -6 345 -25z"/>
<path d="M1758 4785 c-2 -1 -28 -6 -58 -9 -244 -29 -471 -140 -649 -318 -44
-45 -81 -75 -82 -67 0 8 -2 32 -4 54 -1 22 -6 85 -9 140 -4 55 -9 110 -12 123
l-4 22 -250 0 -250 0 0 -37 c-1 -49 -1 -4356 0 -4405 l0 -38 275 0 275 0 0
775 c0 479 4 775 9 775 6 0 16 -8 23 -18 7 -9 38 -39 68 -66 202 -180 497
-279 825 -279 309 1 577 101 778 292 49 47 146 164 183 221 16 25 32 47 35 50
16 12 120 243 148 326 28 82 56 189 67 254 17 95 24 144 31 205 16 141 7 713
-11 744 -2 3 -7 31 -10 62 -7 63 -7 63 -35 174 -109 440 -347 762 -677 916
-160 75 -314 106 -526 107 -75 0 -138 -1 -140 -3z m137 -476 c362 -59 615
-361 697 -834 31 -179 30 -536 -2 -731 -57 -344 -202 -601 -415 -736 -91 -57
-132 -74 -255 -105 -8 -2 -66 -7 -127 -10 -325 -17 -581 107 -753 364 l-50 75
0 771 0 772 44 66 c91 136 209 242 336 301 78 36 121 50 210 64 19 3 36 7 38
9 7 7 224 2 277 -6z"/>
</g>
</svg>
