<?xml version="1.0" standalone="no"?>
<!DOCTYPE svg PUBLIC "-//W3C//DTD SVG 20010904//EN"
 "http://www.w3.org/TR/2001/REC-SVG-20010904/DTD/svg10.dtd">
<svg version="1.0" xmlns="http://www.w3.org/2000/svg"
 width="700.000000pt" height="700.000000pt" viewBox="0 0 700.000000 700.000000"
 preserveAspectRatio="xMidYMid meet">
<metadata>
Created by potrace 1.11, written by Peter Selinger 2001-2013
</metadata>
<g transform="translate(0.000000,700.000000) scale(0.100000,-0.100000)"
fill="#000000" stroke="none">
<path d="M0 3500 l0 -3500 3500 0 3500 0 0 3500 0 3500 -3500 0 -3500 0 0
-3500z m2195 1800 c313 -35 535 -128 720 -302 204 -190 305 -441 305 -752 -1
-576 -293 -916 -887 -1032 -74 -15 -170 -18 -620 -21 l-533 -4 -2 -682 -3
-682 -105 -3 c-58 -2 -160 0 -227 3 l-123 7 0 1739 0 1739 693 0 c396 0 730
-4 782 -10z m2790 0 c272 -31 492 -108 700 -248 356 -239 587 -664 635 -1167
13 -143 13 -501 -1 -641 -39 -401 -180 -731 -417 -976 -254 -262 -583 -406
-1004 -438 -73 -5 -348 -10 -610 -10 l-478 0 0 1745 0 1745 543 0 c298 0 583
-5 632 -10z"/>
<path d="M1180 4250 l0 -681 518 3 517 4 90 27 c223 69 356 193 422 391 25 74
27 94 27 241 0 147 -2 166 -27 242 -70 211 -235 360 -472 425 -77 21 -101 22
-577 26 l-498 3 0 -681z"/>
<path d="M4270 3565 l0 -1365 248 0 c136 0 298 5 361 10 278 25 488 116 656
285 165 164 257 358 311 650 16 85 19 151 19 430 0 302 -2 340 -23 450 -44
228 -120 406 -238 554 -85 105 -168 171 -299 236 -194 96 -320 115 -750 115
l-285 0 0 -1365z"/>
</g>
</svg>
