<?xml version="1.0" standalone="no"?>
<!DOCTYPE svg PUBLIC "-//W3C//DTD SVG 20010904//EN"
 "http://www.w3.org/TR/2001/REC-SVG-20010904/DTD/svg10.dtd">
<svg version="1.0" xmlns="http://www.w3.org/2000/svg"
 width="700.000000pt" height="700.000000pt" viewBox="0 0 700.000000 700.000000"
 preserveAspectRatio="xMidYMid meet">
<metadata>
Created by potrace 1.11, written by Peter Selinger 2001-2013
</metadata>
<g transform="translate(0.000000,700.000000) scale(0.100000,-0.100000)"
fill="#000000" stroke="none">
<path d="M3230 5383 l0 -1620 -59 -2 c-33 -1 -70 -4 -83 -6 -12 -2 -70 -7
-128 -11 -58 -3 -116 -7 -130 -9 -81 -8 -157 -17 -170 -20 -8 -2 -40 -7 -70
-10 -47 -5 -149 -21 -255 -41 -295 -53 -619 -143 -880 -242 -134 -52 -357
-150 -410 -181 -16 -10 -61 -35 -100 -56 -236 -127 -484 -327 -638 -514 -155
-187 -248 -380 -293 -606 -13 -63 -11 -283 2 -360 82 -474 468 -900 1089
-1204 232 -113 375 -170 620 -246 127 -40 313 -90 374 -101 14 -3 27 -7 30 -9
5 -3 74 -16 261 -49 68 -13 150 -25 195 -31 28 -3 61 -8 75 -10 85 -13 127
-17 290 -30 47 -4 101 -9 120 -11 19 -2 185 -7 368 -10 l332 -6 0 1621 0 1621
63 1 c34 1 73 2 87 3 23 3 171 15 250 21 74 6 360 46 470 66 330 60 787 189
977 275 17 8 33 14 36 14 6 0 115 49 222 100 411 196 772 494 944 781 56 93
134 274 146 336 3 15 7 39 10 53 26 116 27 340 2 445 -24 106 -53 190 -94 274
-231 484 -809 891 -1613 1137 -215 66 -410 113 -658 159 -15 3 -36 7 -47 9
-11 2 -42 7 -70 10 -27 4 -61 9 -75 11 -14 2 -47 6 -75 10 -27 4 -61 8 -75 10
-14 2 -52 6 -85 9 -33 3 -94 8 -135 12 -142 13 -167 14 -492 20 l-328 7 0
-1620z m685 1063 c44 -4 109 -9 145 -11 36 -3 82 -8 103 -10 20 -3 56 -7 80
-10 58 -7 116 -15 152 -21 17 -3 44 -7 60 -10 439 -71 812 -183 1175 -353 107
-50 367 -203 390 -230 3 -4 23 -19 45 -35 69 -49 228 -218 276 -291 247 -381
104 -762 -417 -1111 -186 -124 -534 -281 -814 -367 -126 -38 -386 -104 -480
-120 -14 -3 -63 -12 -110 -20 -74 -14 -150 -25 -290 -42 -19 -2 -53 -7 -75
-10 -22 -2 -69 -7 -105 -10 -36 -3 -96 -8 -135 -11 -38 -3 -86 -7 -105 -7
l-35 -1 -3 1329 c-1 732 0 1335 2 1341 2 5 17 9 32 8 16 -1 65 -5 109 -8z
m-687 -4567 l-3 -1334 -25 1 c-14 1 -63 5 -110 8 -47 4 -114 9 -150 11 -59 4
-83 7 -190 21 -19 3 -53 7 -75 10 -22 2 -52 7 -67 9 -16 3 -43 7 -60 10 -32 5
-113 20 -173 31 -16 3 -70 14 -120 25 -49 12 -97 22 -105 24 -32 7 -169 45
-254 70 -324 96 -669 259 -899 422 -102 72 -280 248 -332 328 -83 127 -113
211 -122 340 -8 131 29 256 116 389 163 251 527 501 971 667 58 22 114 44 125
49 51 23 496 143 580 156 11 2 34 6 50 9 144 27 236 42 310 51 33 3 62 8 65 9
9 5 176 20 340 31 58 3 107 8 109 10 3 3 8 1 13 -4 4 -4 7 -609 6 -1343z"/>
</g>
</svg>
