<?xml version="1.0" standalone="no"?><!-- Generator: Gravit.io --><svg xmlns="http://www.w3.org/2000/svg" xmlns:xlink="http://www.w3.org/1999/xlink" style="isolation:isolate" viewBox="-35.922 11.725 583.843 488.55" width="583.843" height="488.55"><g><path d=" M 453.232 58.951 L 453.232 33.508 C 453.232 21.61 443.531 11.725 431.45 11.725 L 92.997 11.725 C 81.099 11.725 71.215 21.426 71.215 33.508 L 71.215 68.652 L 48.151 68.652 C 45.406 68.652 43.209 70.849 43.209 73.595 C 43.209 76.34 45.406 78.537 48.151 78.537 L 71.215 78.537 L 71.215 125.763 L 48.151 125.763 C 45.406 125.763 43.209 127.959 43.209 130.705 C 43.209 133.451 45.406 135.647 48.151 135.647 L 71.215 135.647 L 71.215 182.873 L 48.151 182.873 C 45.406 182.873 43.209 185.07 43.209 187.815 C 43.209 190.561 45.406 192.758 48.151 192.758 L 71.215 192.758 L 71.215 306.429 L 48.151 306.429 C 45.406 306.429 43.209 308.626 43.209 311.371 C 43.209 314.117 45.406 316.314 48.151 316.314 L 71.215 316.314 L 71.215 362.807 L 48.151 362.807 C 45.406 362.807 43.209 365.004 43.209 367.75 C 43.209 370.495 45.406 372.692 48.151 372.692 L 71.215 372.692 L 71.215 419.552 L 48.151 419.552 C 45.406 419.552 43.209 421.748 43.209 424.494 C 43.209 427.24 45.406 429.436 48.151 429.436 L 71.215 429.436 L 71.215 478.492 C 71.215 490.39 80.916 500.275 92.997 500.275 L 431.45 500.275 C 443.348 500.275 453.232 490.574 453.232 478.492 L 453.232 441.334 C 462.018 439.87 468.791 432.365 468.791 423.03 L 468.791 325.832 C 468.791 320.524 466.411 315.581 462.751 312.287 C 466.411 308.992 468.791 304.05 468.791 298.741 L 468.791 201.544 C 468.791 196.235 466.411 191.293 462.751 187.998 C 466.411 184.704 468.791 179.761 468.791 174.453 L 468.791 77.256 C 468.608 67.92 462.018 60.232 453.232 58.951 Z  M 458.907 298.741 C 458.907 302.585 456.527 305.697 453.049 306.978 C 452.134 307.344 451.036 307.527 450.12 307.527 L 433.646 307.527 L 433.646 192.758 L 450.12 192.758 C 454.936 192.845 458.819 196.728 458.907 201.544 L 458.907 298.741 Z  M 458.907 423.213 C 458.907 427.057 456.527 430.168 453.049 431.45 C 452.134 431.816 451.036 431.999 450.12 431.999 L 433.646 431.999 L 433.646 317.229 L 450.12 317.229 C 454.936 317.317 458.819 321.199 458.907 326.015 L 458.907 423.213 Z  M 443.531 478.492 C 443.531 485.082 438.222 490.39 431.633 490.39 L 430.168 490.39 C 432.365 486.913 433.829 482.886 433.829 478.492 L 433.829 441.7 L 443.531 441.7 L 443.531 478.492 Z  M 100.502 490.574 L 92.814 490.574 C 86.225 490.574 80.916 485.265 80.916 478.676 L 80.916 429.619 L 100.868 429.619 C 103.614 429.619 105.811 427.423 105.811 424.677 C 105.811 421.931 103.614 419.735 100.868 419.735 L 80.916 419.735 L 80.916 372.509 L 100.868 372.509 C 103.614 372.509 105.811 370.312 105.811 367.567 C 105.811 364.821 103.614 362.624 100.868 362.624 L 80.916 362.624 L 80.916 315.398 L 100.868 315.398 C 103.614 315.398 105.811 313.202 105.811 310.456 C 105.811 307.711 103.614 305.514 100.868 305.514 L 80.916 305.514 L 80.916 191.842 L 100.868 191.842 C 103.614 191.842 105.811 189.646 105.811 186.9 C 105.811 184.154 103.614 181.958 100.868 181.958 L 80.916 181.958 L 80.916 134.732 L 100.868 134.732 C 103.614 134.732 105.811 132.535 105.811 129.79 C 105.811 127.044 103.614 124.848 100.868 124.848 L 80.916 124.848 L 80.916 77.622 L 100.868 77.622 C 103.614 77.622 105.811 75.425 105.811 72.679 C 105.811 69.934 103.614 67.737 100.868 67.737 L 80.916 67.737 L 80.916 32.592 C 80.916 26.003 86.225 20.694 92.814 20.694 L 412.047 20.694 C 418.636 20.694 423.945 26.003 423.945 32.592 L 423.945 477.577 C 423.945 484.167 418.636 489.475 412.047 489.475 L 100.502 489.475 L 100.502 490.574 L 100.502 490.574 Z  M 443.531 33.508 L 443.531 58.585 L 433.829 58.585 L 433.829 33.508 C 433.829 29.114 432.548 24.904 430.168 21.61 L 431.633 21.61 C 438.039 21.426 443.531 26.918 443.531 33.508 Z  M 453.232 182.507 C 452.317 182.873 451.219 183.056 450.303 183.056 L 433.829 183.056 L 433.829 68.286 L 450.303 68.286 C 455.119 68.374 459.002 72.257 459.09 77.072 L 459.09 174.27 C 458.907 178.114 456.527 181.226 453.232 182.507 Z " fill="rgb(0,0,0)"/><path d=" M 257.441 333.686 L 147.188 333.686 L 147.188 321.381 L 163.105 318.646 L 163.105 206.635 L 147.188 203.9 L 147.188 191.498 L 256.367 191.498 L 256.367 225.678 L 239.863 225.678 L 238.301 206.635 L 182.344 206.635 L 182.344 252.631 L 236.738 252.631 L 236.738 267.768 L 182.344 267.768 L 182.344 318.646 L 239.473 318.646 L 241.035 299.604 L 257.441 299.604 L 257.441 333.686 L 257.441 333.686 Z  M 356.367 237.885 L 357.344 261.225 L 342.891 261.225 L 339.766 248.529 L 339.766 248.529 Q 336.25 245.209 330.928 243.207 L 330.928 243.207 L 330.928 243.207 Q 325.605 241.205 318.867 241.205 L 318.867 241.205 L 318.867 241.205 Q 308.613 241.205 303.633 245.697 L 303.633 245.697 L 303.633 245.697 Q 298.652 250.189 298.652 256.537 L 298.652 256.537 L 298.652 256.537 Q 298.652 262.787 303.047 266.4 L 303.047 266.4 L 303.047 266.4 Q 307.441 270.014 320.918 272.846 L 320.918 272.846 L 320.918 272.846 Q 340.938 277.143 350.703 284.516 L 350.703 284.516 L 350.703 284.516 Q 360.469 291.889 360.469 304.291 L 360.469 304.291 L 360.469 304.291 Q 360.469 318.354 349.092 327.045 L 349.092 327.045 L 349.092 327.045 Q 337.715 335.736 319.355 335.736 L 319.355 335.736 L 319.355 335.736 Q 307.344 335.736 297.773 332.953 L 297.773 332.953 L 297.773 332.953 Q 288.203 330.17 280.684 324.896 L 280.684 324.896 L 280.586 300.775 L 295.039 300.775 L 298.652 314.936 L 298.652 314.936 Q 301.973 317.963 307.686 319.33 L 307.686 319.33 L 307.686 319.33 Q 313.398 320.697 319.355 320.697 L 319.355 320.697 L 319.355 320.697 Q 329.609 320.697 335.42 316.547 L 335.42 316.547 L 335.42 316.547 Q 341.23 312.396 341.23 305.658 L 341.23 305.658 L 341.23 305.658 Q 341.23 299.311 336.396 295.209 L 336.396 295.209 L 336.396 295.209 Q 331.563 291.107 318.086 288.08 L 318.086 288.08 L 318.086 288.08 Q 298.848 283.881 289.082 276.654 L 289.082 276.654 L 289.082 276.654 Q 279.316 269.428 279.316 257.123 L 279.316 257.123 L 279.316 257.123 Q 279.316 244.232 290.303 235.15 L 290.303 235.15 L 290.303 235.15 Q 301.289 226.068 318.867 226.068 L 318.867 226.068 L 318.867 226.068 Q 330.879 226.068 340.449 229.193 L 340.449 229.193 L 340.449 229.193 Q 350.02 232.318 356.367 237.885 L 356.367 237.885 L 356.367 237.885 Z " fill-rule="evenodd" fill="rgb(0,0,0)"/></g></svg>