<?xml version="1.0" standalone="no"?><!-- Generator: Gravit.io --><svg xmlns="http://www.w3.org/2000/svg" xmlns:xlink="http://www.w3.org/1999/xlink" style="isolation:isolate" viewBox="99.323 150 230.677 178.01" width="230.677" height="178.01"><g><path d=" M 288.139 275.363 C 272.96 275.363 260.603 261.719 260.603 244.962 L 260.423 244.962 C 260.558 242.984 260.603 241.007 260.603 239.03 C 260.603 189.942 224.424 150 179.963 150 C 135.501 150 99.323 189.893 99.323 238.98 C 99.323 288.067 135.501 328.01 179.963 328.01 C 215.201 328.01 245.2 302.947 256.125 268.146 C 263.195 280.039 275.209 287.21 288.094 287.227 C 309.228 287.227 326.377 268.245 326.377 244.962 L 315.631 244.962 C 315.676 261.719 303.318 275.363 288.139 275.363 L 288.139 275.363 Z  M 155.695 266.564 C 154.755 270.37 152.561 273.583 149.426 275.561 C 147.367 276.895 145.039 277.538 142.71 277.538 C 137.904 277.56 133.458 274.728 131.069 270.123 C 129.278 266.712 128.785 262.708 129.726 258.852 C 130.666 255.046 132.86 251.833 135.994 249.855 C 139.083 247.878 142.71 247.334 146.203 248.372 C 149.65 249.411 152.561 251.833 154.352 255.293 C 156.143 258.753 156.635 262.758 155.695 266.564 Z  M 154.352 222.667 C 152.561 226.078 149.65 228.55 146.203 229.588 C 145.039 229.934 143.874 230.082 142.71 230.082 C 140.382 230.082 138.098 229.39 135.994 228.105 C 132.905 226.127 130.666 222.914 129.726 219.108 C 128.785 215.301 129.278 211.297 131.069 207.837 C 132.86 204.426 135.77 201.954 139.218 200.916 C 142.665 199.878 146.292 200.422 149.426 202.399 C 152.516 204.377 154.755 207.59 155.695 211.396 C 156.635 215.252 156.143 219.256 154.352 222.667 Z  M 179.963 301.316 C 172.575 301.316 166.531 294.642 166.531 286.486 C 166.531 278.329 172.575 271.656 179.963 271.656 C 187.351 271.656 193.395 278.329 193.395 286.486 C 193.395 294.642 187.396 301.316 179.963 301.316 Z  M 179.963 253.81 C 172.575 253.81 166.531 247.137 166.531 238.98 C 166.531 230.824 172.575 224.15 179.963 224.15 C 187.351 224.15 193.395 230.824 193.395 238.98 C 193.395 247.186 187.396 253.81 179.963 253.81 Z  M 179.963 206.354 C 172.575 206.354 166.531 199.681 166.531 191.524 C 166.531 183.368 172.575 176.694 179.963 176.694 C 187.351 176.694 193.395 183.368 193.395 191.524 C 193.395 199.681 187.396 206.354 179.963 206.354 Z  M 228.857 270.173 C 227.066 273.583 224.156 276.055 220.708 277.093 C 219.544 277.439 218.38 277.588 217.216 277.588 C 214.887 277.588 212.604 276.895 210.499 275.61 C 207.41 273.633 205.171 270.42 204.231 266.613 C 203.291 262.807 203.783 258.803 205.574 255.343 C 207.365 251.932 210.276 249.46 213.723 248.422 C 217.171 247.384 220.798 247.928 223.932 249.905 C 227.021 251.882 229.26 255.095 230.2 258.902 C 231.096 262.708 230.648 266.712 228.857 270.173 Z  M 230.2 219.108 C 229.26 222.914 227.066 226.127 223.932 228.105 C 221.872 229.439 219.544 230.082 217.216 230.082 C 212.409 230.104 207.963 227.272 205.574 222.667 C 203.783 219.256 203.291 215.252 204.231 211.396 C 205.171 207.59 207.365 204.377 210.499 202.399 C 213.589 200.422 217.216 199.878 220.708 200.916 C 224.156 201.954 227.066 204.377 228.857 207.837 C 230.648 211.297 231.096 215.252 230.2 219.108 Z " fill="rgb(15,69,123)"/><ellipse vector-effect="non-scaling-stroke" cx="320.49165824370556" cy="230.49760624895015" rx="9.508341756294499" ry="10.497606248950092" fill="rgb(15,69,123)"/></g></svg>