<?xml version="1.0" standalone="no"?><!-- Generator: Gravit.io --><svg xmlns="http://www.w3.org/2000/svg" xmlns:xlink="http://www.w3.org/1999/xlink" style="isolation:isolate" viewBox="0 0 256 256" width="256" height="256"><path d=" M 116.001 144.844 L 116.001 146.703 L 116.001 146.703 Q 116.001 173.719 103.642 190.234 L 103.642 190.234 L 103.642 190.234 Q 91.283 206.75 70.173 206.75 L 70.173 206.75 L 70.173 206.75 Q 48.626 206.75 36.267 193.078 L 36.267 193.078 L 36.267 250.063 L 16.032 250.063 L 16.032 86.219 L 34.517 86.219 L 35.501 99.344 L 35.501 99.344 Q 47.861 84.031 69.845 84.031 L 69.845 84.031 L 69.845 84.031 Q 91.173 84.031 103.587 100.109 L 103.587 100.109 L 103.587 100.109 Q 116.001 116.188 116.001 144.844 L 116.001 144.844 L 116.001 144.844 Z  M 95.767 144.406 L 95.767 144.406 L 95.767 144.406 Q 95.767 124.391 87.236 112.797 L 87.236 112.797 L 87.236 112.797 Q 78.704 101.203 63.829 101.203 L 63.829 101.203 L 63.829 101.203 Q 45.454 101.203 36.267 117.5 L 36.267 117.5 L 36.267 174.047 L 36.267 174.047 Q 45.345 190.234 64.048 190.234 L 64.048 190.234 L 64.048 190.234 Q 78.595 190.234 87.181 178.695 L 87.181 178.695 L 87.181 178.695 Q 95.767 167.156 95.767 144.406 Z  M 136.783 145.938 L 136.783 144.406 L 136.783 144.406 Q 136.783 117.172 149.689 100.602 L 149.689 100.602 L 149.689 100.602 Q 162.595 84.031 183.486 84.031 L 183.486 84.031 L 183.486 84.031 Q 204.267 84.031 216.408 98.25 L 216.408 98.25 L 216.408 36.563 L 236.642 36.563 L 236.642 204.563 L 218.048 204.563 L 217.064 191.875 L 217.064 191.875 Q 204.923 206.75 183.267 206.75 L 183.267 206.75 L 183.267 206.75 Q 162.704 206.75 149.743 189.906 L 149.743 189.906 L 149.743 189.906 Q 136.783 173.063 136.783 145.938 L 136.783 145.938 L 136.783 145.938 Z  M 157.017 146.703 L 157.017 146.703 L 157.017 146.703 Q 157.017 166.828 165.329 178.203 L 165.329 178.203 L 165.329 178.203 Q 173.642 189.578 188.298 189.578 L 188.298 189.578 L 188.298 189.578 Q 207.548 189.578 216.408 172.297 L 216.408 172.297 L 216.408 117.938 L 216.408 117.938 Q 207.329 101.203 188.517 101.203 L 188.517 101.203 L 188.517 101.203 Q 173.642 101.203 165.329 112.688 L 165.329 112.688 L 165.329 112.688 Q 157.017 124.172 157.017 146.703 Z " fill="rgb(255,255,255)"/></svg>