<?xml version="1.0" standalone="no"?>
<!DOCTYPE svg PUBLIC "-//W3C//DTD SVG 20010904//EN"
 "http://www.w3.org/TR/2001/REC-SVG-20010904/DTD/svg10.dtd">
<svg version="1.0" xmlns="http://www.w3.org/2000/svg"
 width="700.000000pt" height="700.000000pt" viewBox="0 0 700.000000 700.000000"
 preserveAspectRatio="xMidYMid meet">
<metadata>
Created by potrace 1.11, written by Peter Selinger 2001-2013
</metadata>
<g transform="translate(0.000000,700.000000) scale(0.100000,-0.100000)"
fill="#000000" stroke="none">
<path d="M5919 5993 c0 -5 -1 -382 -1 -840 l-1 -832 -81 76 c-169 157 -356
249 -593 289 -72 13 -362 12 -433 -1 -327 -58 -576 -226 -775 -521 -125 -184
-236 -478 -261 -685 -3 -30 -8 -57 -10 -60 -10 -17 -19 -211 -19 -399 1 -189
7 -312 20 -377 2 -11 6 -37 9 -57 59 -372 214 -688 450 -921 45 -44 109 -98
141 -119 33 -22 72 -47 86 -57 67 -45 219 -98 355 -124 127 -24 405 -15 524
18 8 2 33 7 54 12 81 16 223 82 321 148 68 46 65 44 161 138 39 39 71 64 71
57 0 -19 12 -172 19 -253 4 -38 8 -72 10 -74 2 -3 116 -5 252 -5 l247 0 3
2297 2 2297 -275 0 c-151 0 -275 -3 -276 -7z m-607 -1773 c18 -5 47 -11 63
-14 17 -2 55 -13 85 -24 170 -60 302 -167 415 -337 l40 -60 1 -750 1 -750 -30
-50 c-65 -106 -159 -214 -235 -267 -92 -64 -218 -117 -317 -134 -22 -4 -49 -8
-60 -10 -39 -8 -221 -4 -277 5 -78 13 -189 53 -256 93 -69 40 -208 176 -244
238 -104 179 -142 284 -183 515 -24 138 -25 560 0 655 2 8 7 40 10 70 8 64 50
230 69 275 84 189 120 247 210 339 101 102 243 178 380 202 17 3 32 7 34 9 8
8 262 3 294 -5z"/>
<path d="M1628 4674 c-239 -48 -420 -145 -582 -311 -75 -76 -76 -77 -77 -48
-1 17 -3 44 -4 60 -8 82 -18 222 -17 237 0 10 -4 21 -10 24 -15 10 -489 11
-495 1 -7 -11 -6 -4454 1 -4465 3 -6 117 -10 276 -10 l270 0 0 774 c0 426 4
774 8 774 4 0 30 -23 57 -50 61 -62 166 -135 260 -182 69 -35 203 -84 254 -93
14 -3 37 -7 51 -10 14 -3 45 -8 70 -11 25 -3 56 -8 70 -9 125 -18 382 3 510
41 235 69 455 236 598 454 20 30 39 57 42 60 13 13 91 174 123 255 33 83 79
242 91 311 38 223 41 259 41 539 0 253 -6 358 -25 460 -5 28 -12 66 -14 85
-31 207 -134 467 -251 641 -174 254 -428 427 -702 475 -13 2 -35 7 -50 10 -16
4 -107 8 -203 9 -150 2 -192 -1 -292 -21z m337 -469 c260 -66 465 -278 571
-587 29 -87 61 -240 71 -343 14 -150 8 -465 -12 -590 -3 -16 -7 -41 -9 -55
-19 -115 -71 -281 -119 -375 -151 -300 -395 -454 -718 -453 -323 1 -549 122
-727 391 l-32 48 0 771 0 771 31 51 c67 109 160 205 266 273 181 117 448 156
678 98z"/>
</g>
</svg>
